<svg width="26" height="26" viewBox="0 0 26 26" fill="none" xmlns="http://www.w3.org/2000/svg">
<circle cx="13" cy="13" r="13" fill="#FE5757"/>
<path d="M8.51423 18C8.3825 18 8.25077 17.9499 8.15069 17.8491C7.94977 17.6481 7.94977 17.3224 8.15069 17.1215L17.1217 8.15069C17.3227 7.94977 17.6484 7.94977 17.8493 8.15069C18.0502 8.3516 18.0502 8.67733 17.8493 8.87837L8.87839 17.8491C8.77756 17.9493 8.64583 18 8.51423 18Z" fill="white"/>
<path d="M17.4859 18C17.3542 18 17.2226 17.9499 17.1224 17.8491L8.15069 8.87837C7.94977 8.67733 7.94977 8.3516 8.15069 8.15069C8.35161 7.94977 8.67735 7.94977 8.87839 8.15069L17.8493 17.1215C18.0502 17.3224 18.0502 17.6481 17.8493 17.8491C17.7485 17.9493 17.6169 18 17.4859 18Z" fill="white"/>
</svg>
